<svg width="1728" height="402" viewBox="0 0 1728 402" fill="none" xmlns="http://www.w3.org/2000/svg">
<path fill-rule="evenodd" clip-rule="evenodd" d="M0 191.95V86.4172C41 78.2993 140.968 113.884 222.968 70.25C304.968 26.6164 411 -0.850041 494 16.4005C576 33.651 575.684 43.8669 658.684 70.25C740.684 96.6331 880.477 98.4498 962.477 45.6836C1045.48 -7.08266 1152 -18.1005 1234 33.651C1317 86.4172 1399 43.8669 1481 70.25C1563 95.6184 1687 139.183 1728 86.4172V402H1687C1646 402 1563 402 1481 402C1399 402 1317 402 1234 402C1152 402 1070 402 987 402C905 402 823 402 741 402C658 402 576 402 494 402C411 402 329 402 247 402C165 402 82 402 41 402H0V191.95Z" fill="#BFC76C"/>
</svg>
