<svg width="1728" height="503" viewBox="0 0 1728 503" fill="none" xmlns="http://www.w3.org/2000/svg">
<path fill-rule="evenodd" clip-rule="evenodd" d="M0 296.33L72 316.997C144 337.664 288 378.998 432 358.331C576 337.664 720 254.996 864 241.218C1008 227.44 1059 -54.6785 1282.5 9.47553C1426.5 50.8096 1584 392.776 1656 406.554L1728 420.332V503H1656C1584 503 1440 503 1296 503C1152 503 1008 503 864 503C720 503 576 503 432 503C288 503 144 503 72 503H0V296.33Z" fill="#248B52" fill-opacity="0.74"/>
</svg>
