<svg width="1728" height="535" viewBox="0 0 1728 535" fill="none" xmlns="http://www.w3.org/2000/svg">
<path fill-rule="evenodd" clip-rule="evenodd" d="M0 0L19 65.9058C38 133.104 77 67.1981 115 55.5676C154 45.2295 192 89.1667 230 55.5676C269 21.9686 307 111.135 346 122.766C384 133.104 422 65.9058 461 111.135C499 155.072 538 233.901 576 233.901C614 233.901 653 155.072 691 133.104C730 111.135 768 222.271 806 311.437C845 400.604 883 467.802 922 479.432C960 489.771 998 445.833 1037 400.604C1075 356.667 1114 311.437 1152 233.901C1190 155.072 1229 43.9372 1267 33.599C1306 21.9686 1344 111.135 1382 122.766C1421 133.104 1459 65.9058 1498 33.599C1536 0 1574 0 1613 89.1667C1651 178.333 1709 122.766 1728 211.932V535H1709C1690 535 1651 535 1613 535C1574 535 1536 535 1498 535C1459 535 1421 535 1382 535C1344 535 1306 535 1267 535C1229 535 1190 535 1152 535C1114 535 1075 535 1037 535C998 535 960 535 922 535C883 535 845 535 806 535C768 535 730 535 691 535C653 535 614 535 576 535C538 535 499 535 461 535C422 535 384 535 346 535C307 535 269 535 230 535C192 535 154 535 115 535C77 535 38 535 19 535H0V0Z" fill="#023216"/>
</svg>
