<svg width="1728" height="691" viewBox="0 0 1728 691" fill="none" xmlns="http://www.w3.org/2000/svg">
<path fill-rule="evenodd" clip-rule="evenodd" d="M-713 153.556L-642.078 127.963C-569.006 102.37 -427.161 51.1852 -283.167 38.3889C-139.173 25.5926 -8.52108 114.884 135.473 178.865C279.467 242.847 471.31 94.4151 615.304 120.008C759.299 145.6 839.176 201.414 1006.33 69.5089C1183.19 -57.7107 1292.17 230.333 1436.17 191.944C1580.16 153.556 1722.01 76.7778 1795.08 38.3889L1866 0V691H1795.08C1722.01 691 1580.16 691 1436.17 691C1292.17 691 1150.33 691 1006.33 691C862.339 691 720.494 691 576.5 691C432.506 691 290.661 691 146.667 691C2.6724 691 -139.173 691 -283.167 691C-427.161 691 -569.006 691 -642.078 691H-713V153.556Z" fill="#74C9B1" fill-opacity="0.63"/>
</svg>
