<svg width="1200" height="719" viewBox="0 0 1200 719" fill="none" xmlns="http://www.w3.org/2000/svg">
<path fill-rule="evenodd" clip-rule="evenodd" d="M0 147L33.5 117.5L73.5 85.0001C108.5 60 184 14.3001 234 45.5001C284 76.7001 284 136.6 334 95.0001C384 53.4001 417 132.5 467 132.5C517 132.5 505 36.0001 600 34.5001C692.5 40.5 700 132.5 750 132.5C800 132.5 850.5 -19 912 29.5C977 67.5 1020.5 107.3 1070.5 34.5001C1120.5 -38.2999 1160.5 22 1200 64.5V95.0001V719H1175C1150 719 1100 719 1050 719C1000 719 950 719 900 719C850 719 800 719 750 719C700 719 650 719 600 719C550 719 500 719 450 719C400 719 350 719 300 719C250 719 200 719 150 719C100 719 50 719 25 719H0V147Z" fill="#A6DCCC"/>
</svg>
