<svg width="1200" height="542" viewBox="0 0 1200 542" fill="none" xmlns="http://www.w3.org/2000/svg">
<path fill-rule="evenodd" clip-rule="evenodd" d="M0 230.735L0 270.763L79.5 116L127 38.2634C172.5 -30.5 200.5 5.5 239.5 52.7633C275.5 106.5 307 205.835 357 164.235C407 122.635 459.5 36 526 92.5C663 223.5 642.5 201.586 652.5 210.763C687 242.425 720.5 159.5 777.5 71.5C828 14.5 850 30 911.5 78.5C976.5 116.5 994 125.563 1044 52.7633C1094 -20.0367 1160.5 107.763 1200 150.263V541.764H1175C1150 541.764 1100 541.764 1050 541.764C1000 541.764 950 541.764 900 541.764C850 541.764 800 541.764 750 541.764C700 541.764 650 541.764 600 541.764C550 541.764 500 541.764 450 541.764C400 541.764 350 541.764 300 541.764C250 541.764 200 541.764 150 541.764C100 541.764 50 541.764 25 541.764H0V230.735Z" fill="#2B8F58"/>
</svg>
