<svg width="1201" height="672" viewBox="0 0 1201 672" fill="none" xmlns="http://www.w3.org/2000/svg">
<path fill-rule="evenodd" clip-rule="evenodd" d="M0.5 360.471L0.5 202.971L47 171.971L92.5 148.471C166 120.971 187 126.271 237 157.471C287 188.671 307.5 335.571 357.5 293.971C407.5 252.371 432 84.9999 478.5 112.5C615.5 243.5 557.5 54 652.5 52.5C745 58.4999 716 202.971 766 202.971C816 202.971 834.5 36.4999 896 84.9999C961 123 1004.5 162.8 1054.5 90C1104.5 17.2 1161 -25.5001 1200.5 16.9999V47.5V671.5H1175.5C1150.5 671.5 1100.5 671.5 1050.5 671.5C1000.5 671.5 950.5 671.5 900.5 671.5C850.5 671.5 800.5 671.5 750.5 671.5C700.5 671.5 650.5 671.5 600.5 671.5C550.5 671.5 500.5 671.5 450.5 671.5C400.5 671.5 350.5 671.5 300.5 671.5C250.5 671.5 200.5 671.5 150.5 671.5C100.5 671.5 50.5 671.5 25.5 671.5H0.5V360.471Z" fill="#023216"/>
</svg>
