<svg width="1210" height="566" viewBox="0 0 1210 566" fill="none" xmlns="http://www.w3.org/2000/svg">
<path fill-rule="evenodd" clip-rule="evenodd" d="M0.432617 165.5L42.5 141.5C76.5 117.5 149.5 129.5 216.5 99.5C283.5 69.5 342.5 -2.50002 409.5 3.49998C476.5 9.49998 514 69.5 581 99.5C648 129.5 698 141.5 803 99.5C893 63.5 921.5 21.5 988.5 3.49999C1055.5 -14.5 1142.5 69.5 1176.5 63.5L1209.5 57.5V309.5V565.5H1184.5C1150.5 565.5 1106.5 565.5 1039.5 565.5C972.5 565.5 900 565.5 833 565.5C766 565.5 684.5 565.5 617.5 565.5C550.5 565.5 503.933 565.5 436.933 565.5C369.933 565.5 307.433 565.5 240.433 565.5C173.433 565.5 86.4326 565.5 52.4326 565.5H0.432617V165.5Z" fill="#BFC76C"/>
</svg>
